<svg width="37" height="36" viewBox="0 0 37 36" fill="none" xmlns="http://www.w3.org/2000/svg">
<path d="M26.6945 1.29248H9.56482C4.8346 1.29248 1 5.06452 1 9.71756V26.5677C1 31.2208 4.8346 34.9928 9.56482 34.9928H26.6945C31.4247 34.9928 35.2593 31.2208 35.2593 26.5677V9.71756C35.2593 5.06452 31.4247 1.29248 26.6945 1.29248Z" stroke="#A4238C" stroke-width="1.5" stroke-linecap="round" stroke-linejoin="round"/>
<g clip-path="url(#clip0_32_528)">
<path d="M23.6112 8.59229H20.6213C19.2996 8.59229 18.0322 9.1337 17.0976 10.0974C16.1631 11.0612 15.6381 12.3682 15.6381 13.7312V16.8145H12.6482V20.9256H15.6381V29.1478H19.6246V20.9256H22.6145L23.6112 16.8145H19.6246V13.7312C19.6246 13.4586 19.7296 13.1972 19.9165 13.0044C20.1034 12.8117 20.3569 12.7034 20.6213 12.7034H23.6112V8.59229Z" fill="#A4238C"/>
</g>
<defs>
<clipPath id="clip0_32_528">
<rect width="10.963" height="20.5556" fill="white" transform="translate(12.6482 8.59229)"/>
</clipPath>
</defs>
</svg>
