<svg width="39" height="37" viewBox="0 0 39 37" fill="none" xmlns="http://www.w3.org/2000/svg">
<path d="M27.5376 1.94141H10.5733C5.88877 1.94141 2.09119 5.64818 2.09119 10.2207V26.7794C2.09119 31.3519 5.88877 35.0587 10.5733 35.0587H27.5376C32.2222 35.0587 36.0198 31.3519 36.0198 26.7794V10.2207C36.0198 5.64818 32.2222 1.94141 27.5376 1.94141Z" stroke="#A4238C" stroke-width="1.5" stroke-linecap="round" stroke-linejoin="round"/>
<path d="M25.8412 17.4571C26.0505 18.8352 25.8094 20.2426 25.152 21.4792C24.4947 22.7158 23.4546 23.7186 22.1797 24.3449C20.9048 24.9713 19.46 25.1893 18.0508 24.968C16.6417 24.7466 15.3399 24.0972 14.3306 23.1121C13.3214 22.127 12.6561 20.8564 12.4293 19.4809C12.2026 18.1054 12.4259 16.6952 13.0676 15.4508C13.7093 14.2064 14.7367 13.1912 16.0036 12.5495C17.2705 11.9079 18.7124 11.6725 20.1242 11.8768C21.5644 12.0853 22.8976 12.7403 23.9271 13.7451C24.9566 14.75 25.6276 16.0514 25.8412 17.4571Z" stroke="#A4238C" stroke-width="2" stroke-linecap="round" stroke-linejoin="round"/>
<path d="M28.3859 9.38721L28.402 9.39271L28.3859 9.38721Z" fill="#F5724B"/>
<path d="M28.3859 9.38721L28.402 9.39271" stroke="#A4238C" stroke-width="2" stroke-linecap="round" stroke-linejoin="round"/>
</svg>
