<svg width="36" height="36" viewBox="0 0 36 36" fill="none" xmlns="http://www.w3.org/2000/svg">
<path d="M21.179 13.6172C22.451 13.6172 23.671 14.1225 24.5705 15.022C25.47 15.9215 25.9753 17.1414 25.9753 18.4135V24.0092H22.7778V18.4135C22.7778 17.9895 22.6093 17.5828 22.3095 17.283C22.0097 16.9832 21.603 16.8147 21.179 16.8147C20.755 16.8147 20.3483 16.9832 20.0485 17.283C19.7487 17.5828 19.5802 17.9895 19.5802 18.4135V24.0092H16.3827V18.4135C16.3827 17.1414 16.888 15.9215 17.7875 15.022C18.687 14.1225 19.9069 13.6172 21.179 13.6172Z" fill="#A4238C"/>
<path d="M9.98767 14.4165H13.1852V24.0091H9.98767V14.4165Z" fill="#A4238C"/>
<path d="M11.5864 12.0183C12.4694 12.0183 13.1852 11.3025 13.1852 10.4196C13.1852 9.53659 12.4694 8.8208 11.5864 8.8208C10.7035 8.8208 9.98767 9.53659 9.98767 10.4196C9.98767 11.3025 10.7035 12.0183 11.5864 12.0183Z" fill="#A4238C"/>
<path d="M26.5464 1.29248H9.41675C4.68653 1.29248 0.851929 5.06452 0.851929 9.71756V26.5677C0.851929 31.2208 4.68653 34.9928 9.41675 34.9928H26.5464C31.2766 34.9928 35.1112 31.2208 35.1112 26.5677V9.71756C35.1112 5.06452 31.2766 1.29248 26.5464 1.29248Z" stroke="#A4238C" stroke-width="1.5" stroke-linecap="round" stroke-linejoin="round"/>
</svg>
